<svg width="123" height="113" viewBox="0 0 123 113" fill="none" xmlns="http://www.w3.org/2000/svg">
<g clip-path="url(#clip0_29_3)">
<path fill-rule="evenodd" clip-rule="evenodd" d="M15.09 8.4799C14.5393 7.53699 14.1982 6.48648 14.09 5.3999C14.02 3.6999 14.89 2.2899 16.8 1.0899C17.2733 0.797766 17.7761 0.556427 18.3 0.369897C19.3512 -0.0424832 20.5016 -0.131593 21.6038 0.113987C22.706 0.359567 23.7097 0.92865 24.4864 1.74831C25.2631 2.56797 25.7774 3.60088 25.9633 4.71467C26.1492 5.82846 25.9984 6.9724 25.53 7.9999C25.0773 9.05903 24.3292 9.96545 23.3752 10.6109C22.4212 11.2564 21.3016 11.6136 20.15 11.6399C19.1253 11.5417 18.1366 11.2104 17.2596 10.6713C16.3826 10.1323 15.6405 9.39981 15.09 8.5299V8.4799Z" fill="#029CCC"/>
<path fill-rule="evenodd" clip-rule="evenodd" d="M43.57 8.4799C44.1251 7.53897 44.4665 6.48747 44.57 5.3999C44.64 3.6999 43.78 2.2899 41.86 1.0899C41.3867 0.797766 40.8839 0.556427 40.36 0.369897C39.3088 -0.0424832 38.1584 -0.131593 37.0562 0.113987C35.954 0.359567 34.9503 0.92865 34.1736 1.74831C33.3969 2.56797 32.8826 3.60088 32.6967 4.71467C32.5108 5.82846 32.6617 6.9724 33.13 7.9999C33.5827 9.05903 34.3308 9.96545 35.2848 10.6109C36.2388 11.2564 37.3584 11.6136 38.51 11.6399C39.5347 11.5417 40.5234 11.2104 41.4004 10.6713C42.2774 10.1323 43.0196 9.39981 43.57 8.5299V8.4799Z" fill="#029CCC"/>
<path fill-rule="evenodd" clip-rule="evenodd" d="M102.74 4.26009C107.652 4.2599 112.395 6.05505 116.076 9.30772C119.758 12.5604 122.123 17.0463 122.728 21.9213C123.332 26.7962 122.134 31.7241 119.359 35.7774C116.584 39.8308 112.423 42.7303 107.66 43.9301C107.66 45.3001 107.75 45.1701 107.81 47.3901C107.92 51.2401 108.04 55.3301 108.04 58.7001C108.04 83.8301 103.64 112.33 67.2 112.33C53.68 112.33 43.78 105.85 36.85 96.8101C28.68 86.1501 24.85 71.8101 24.12 60.9001C21.7466 59.1725 19.5969 57.1571 17.72 54.9001C14.4435 51.004 11.5251 46.8204 8.99998 42.4001C8.63853 41.7752 8.42854 41.0743 8.38686 40.3536C8.34518 39.6329 8.47297 38.9125 8.75998 38.2501L8.32998 37.4201C2.46998 26.0001 -1.36002 13.4301 0.459977 8.00009C1.30998 5.43009 3.34998 3.74009 6.36998 2.80009C9.51044 1.9837 12.7679 1.71309 16 2.00009C16.4202 2.02176 16.8321 2.12598 17.212 2.30682C17.592 2.48765 17.9326 2.74155 18.2144 3.05402C18.4962 3.36649 18.7137 3.73141 18.8545 4.12794C18.9953 4.52447 19.0566 4.94486 19.035 5.36509C19.0133 5.78532 18.9091 6.19716 18.7282 6.57711C18.5474 6.95706 18.2935 7.29768 17.981 7.5795C17.6686 7.86133 17.3037 8.07885 16.9071 8.21964C16.5106 8.36044 16.0902 8.42175 15.67 8.40009C13.1976 8.16625 10.7036 8.34536 8.28998 8.93009C7.28998 9.24009 6.69998 9.60009 6.55998 10.0201C5.24998 13.8101 8.82998 24.3401 14 34.5001C14.21 34.9201 14.42 35.3301 14.64 35.7401C15.6335 36.115 16.4671 36.8215 17 37.7401C19.2263 41.6681 21.8034 45.3866 24.7 48.8501C25.8862 50.2691 27.2019 51.5747 28.63 52.7501H29.1C30.5178 51.7181 31.8248 50.5418 33 49.2401C36.0789 45.7315 38.8022 41.9262 41.13 37.8801C41.6584 36.9655 42.4843 36.2597 43.47 35.8801C48.89 25.8801 52.81 15.1001 52.01 10.8801C51.83 9.88009 51.01 9.29009 49.73 8.88009C47.3087 8.23508 44.8034 7.96196 42.3 8.07009C41.4513 8.07009 40.6374 7.73295 40.0372 7.13283C39.4371 6.53271 39.1 5.71878 39.1 4.87009C39.1 4.02139 39.4371 3.20746 40.0372 2.60735C40.6374 2.00723 41.4513 1.67009 42.3 1.67009C45.4971 1.54553 48.6937 1.93034 51.77 2.81009C55.18 3.96009 57.62 6.06009 58.31 9.71009C59.31 15.2101 55.31 27.3901 49.4 38.4101C49.6867 39.0807 49.8117 39.8094 49.7648 40.5373C49.7179 41.2652 49.5004 41.9718 49.13 42.6001C46.4697 47.1845 43.3683 51.4982 39.87 55.4801C37.9769 57.5968 35.8114 59.4531 33.43 61.0001C34.12 70.3201 37.43 82.2801 44.22 91.1501C49.51 98.0801 57 103 67.19 103C95.37 103 98.76 79.4401 98.76 58.6701C98.76 54.3201 98.66 50.8601 98.57 47.6101C98.5 45.4101 98.44 44.7701 98.4 44.0301C93.5583 42.9537 89.2841 40.1286 86.3964 36.0961C83.5086 32.0636 82.2104 27.1073 82.7505 22.1769C83.2907 17.2466 85.6311 12.6889 89.3234 9.37719C93.0157 6.06551 97.8001 4.23275 102.76 4.23009L102.74 4.26009ZM102.74 11.5001C105.291 11.5001 107.785 12.2567 109.907 13.6741C112.028 15.0916 113.682 17.1063 114.658 19.4635C115.634 21.8206 115.89 24.4144 115.392 26.9168C114.894 29.4191 113.666 31.7177 111.862 33.5218C110.058 35.3259 107.759 36.5545 105.257 37.0522C102.754 37.55 100.161 37.2945 97.8034 36.3181C95.4462 35.3418 93.4315 33.6883 92.014 31.5669C90.5966 29.4455 89.84 26.9515 89.84 24.4001C89.8387 22.7057 90.1714 21.0276 90.8193 19.4619C91.4671 17.8962 92.4172 16.4736 93.6154 15.2755C94.8135 14.0773 96.2361 13.1272 97.8018 12.4794C99.3675 11.8315 101.046 11.4988 102.74 11.5001Z" fill="#029CCC"/>
<path fill-rule="evenodd" clip-rule="evenodd" d="M62.52 50.1699H70.66C71.3912 50.1726 72.0917 50.4642 72.6087 50.9812C73.1258 51.4983 73.4174 52.1987 73.42 52.9299V62.3299H82.82C83.5512 62.3326 84.2517 62.6242 84.7687 63.1412C85.2858 63.6583 85.5774 64.3587 85.58 65.0899V73.2299C85.58 73.9628 85.2896 74.6659 84.7723 75.1851C84.2549 75.7043 83.5529 75.9973 82.82 75.9999H73.42V85.3899C73.42 86.1228 73.1296 86.8259 72.6122 87.3451C72.0949 87.8643 71.3929 88.1573 70.66 88.1599H62.52C61.7862 88.1573 61.0832 87.8646 60.5643 87.3457C60.0453 86.8268 59.7527 86.1238 59.75 85.3899V75.9999H50.36C49.6262 75.9973 48.9232 75.7046 48.4043 75.1857C47.8853 74.6668 47.5927 73.9638 47.59 73.2299V65.0899C47.5927 64.3561 47.8853 63.6531 48.4043 63.1341C48.9232 62.6152 49.6262 62.3226 50.36 62.3199H59.76V52.9299C59.7627 52.1987 60.0543 51.4983 60.5713 50.9812C61.0884 50.4642 61.7888 50.1726 62.52 50.1699Z" fill="#F20004"/>
</g>
<defs>
<clipPath id="clip0_29_3">
<rect width="122.88" height="112.33" fill="white"/>
</clipPath>
</defs>
</svg>
